<mxfile host="app.diagrams.net" modified="2024-06-27T06:52:23.524Z" agent="Mozilla/5.0 (Windows NT 10.0; Win64; x64) AppleWebKit/537.36 (KHTML, like Gecko) Chrome/126.0.0.0 Safari/537.36" version="24.6.3" etag="em1NzX07V8oQR1v2_OxI" type="github">
  <diagram name="Page-1" id="T8C43UlscP5A6vXbGt7i">
    <mxGraphModel>
      <root>
        <mxCell id="0" />
        <mxCell id="1" parent="0" />
      </root>
    </mxGraphModel>
  </diagram>
</mxfile>
